<svg id="svg" xmlns="http://www.w3.org/2000/svg" xmlns:xlink="http://www.w3.org/1999/xlink" width="400" height="400" viewBox="0, 0, 400,400"><g id="svgg"><path id="path0" d="M254.400 50.268 C 253.233 50.667,242.561 56.026,239.800 57.599 C 238.260 58.477,236.730 59.316,236.400 59.463 C 231.116 61.821,222.000 68.775,222.000 70.448 C 222.000 70.642,221.730 70.800,221.400 70.800 C 221.070 70.800,220.794 71.025,220.787 71.300 C 220.780 71.575,220.136 72.430,219.356 73.200 C 217.691 74.843,217.069 75.865,217.405 76.407 C 217.537 76.622,219.391 75.032,221.523 72.874 C 223.655 70.716,226.408 68.211,227.639 67.307 C 228.870 66.404,230.192 65.351,230.575 64.968 C 231.626 63.917,234.532 62.016,235.100 62.007 C 235.375 62.003,235.600 61.847,235.600 61.661 C 235.600 61.474,236.275 61.030,237.100 60.674 C 237.925 60.318,238.870 59.853,239.200 59.640 C 239.530 59.427,240.880 58.746,242.200 58.126 C 243.520 57.507,244.690 56.902,244.800 56.782 C 245.206 56.340,247.946 54.869,250.437 53.756 C 253.630 52.329,256.037 50.784,255.762 50.338 C 255.534 49.969,255.309 49.958,254.400 50.268 M216.267 77.067 C 216.120 77.213,216.000 77.650,216.000 78.037 C 216.000 78.425,215.685 78.824,215.300 78.924 C 214.779 79.060,214.832 79.119,215.510 79.154 C 216.288 79.193,217.200 78.017,217.200 76.974 C 217.200 76.705,216.565 76.768,216.267 77.067 M266.600 127.959 C 266.160 128.137,264.549 128.409,263.020 128.561 C 253.848 129.477,252.809 139.203,260.949 147.943 C 262.668 149.788,267.980 153.814,269.200 154.197 C 269.750 154.369,270.629 154.845,271.154 155.255 C 271.679 155.665,272.401 156.000,272.760 156.000 C 273.118 156.000,274.039 156.329,274.806 156.730 C 278.213 158.516,287.418 159.157,291.497 157.894 C 299.661 155.366,299.832 147.058,291.882 139.102 C 283.972 131.185,282.184 130.213,272.600 128.614 C 270.840 128.320,268.950 127.980,268.400 127.857 C 267.850 127.734,267.040 127.780,266.600 127.959 M305.501 162.783 C 303.150 163.239,300.569 165.692,300.163 167.857 C 300.023 168.601,299.750 169.307,299.555 169.428 C 299.085 169.718,299.097 172.689,299.569 172.981 C 299.772 173.106,300.053 173.730,300.193 174.367 C 300.851 177.365,308.893 179.542,312.988 177.831 C 316.481 176.371,318.041 170.747,315.925 167.247 C 313.467 163.182,310.342 161.844,305.501 162.783 " stroke="none" fill="#faf3f3" fill-rule="evenodd"></path><path id="path1" d="M278.500 15.062 C 278.005 15.169,277.600 15.530,277.600 15.865 C 277.600 16.201,277.240 16.569,276.800 16.684 C 276.357 16.800,276.000 17.230,276.000 17.647 C 276.000 18.061,275.742 18.400,275.427 18.400 C 275.112 18.400,274.740 18.760,274.600 19.200 C 274.460 19.640,274.088 20.000,273.773 20.000 C 273.458 20.000,273.200 20.184,273.200 20.410 C 273.200 20.635,272.750 20.991,272.200 21.200 C 271.650 21.409,271.200 21.855,271.200 22.190 C 271.200 22.623,270.784 22.800,269.763 22.800 C 268.662 22.800,268.276 22.987,268.116 23.600 C 267.953 24.223,267.570 24.400,266.386 24.400 C 264.477 24.400,263.600 24.728,263.600 25.443 C 263.600 25.857,262.985 26.000,261.200 26.000 C 259.067 26.000,258.800 26.089,258.800 26.800 C 258.800 27.537,258.533 27.600,255.403 27.600 C 252.440 27.600,251.943 27.702,251.507 28.400 C 251.066 29.106,250.574 29.200,247.324 29.200 C 244.631 29.200,243.554 29.347,243.320 29.747 C 243.111 30.105,241.928 30.361,239.898 30.487 C 237.794 30.618,236.561 30.893,236.066 31.340 C 235.607 31.755,234.643 32.000,233.465 32.000 C 232.087 32.000,231.411 32.211,230.907 32.800 C 230.494 33.283,229.727 33.600,228.973 33.600 C 228.259 33.600,227.433 33.922,227.044 34.352 C 226.669 34.765,225.671 35.214,224.825 35.350 C 223.979 35.485,223.183 35.867,223.056 36.198 C 222.929 36.529,222.459 36.800,222.013 36.800 C 221.467 36.800,221.200 37.063,221.200 37.600 C 221.200 38.116,220.933 38.400,220.449 38.400 C 220.036 38.400,219.458 38.689,219.165 39.042 C 218.873 39.395,218.220 39.840,217.716 40.032 C 217.212 40.223,216.800 40.634,216.800 40.943 C 216.800 41.253,216.440 41.601,216.000 41.716 C 215.560 41.831,215.200 42.212,215.200 42.563 C 215.200 42.913,214.924 43.200,214.587 43.200 C 214.251 43.200,213.859 43.502,213.717 43.872 C 213.575 44.242,212.771 45.254,211.930 46.120 C 211.088 46.987,210.400 48.023,210.400 48.421 C 210.400 48.820,210.040 49.260,209.600 49.400 C 209.090 49.562,208.800 50.005,208.800 50.624 C 208.800 51.160,208.443 51.816,208.000 52.093 C 207.420 52.455,207.200 53.026,207.200 54.165 C 207.200 55.101,206.917 56.050,206.500 56.510 C 205.323 57.809,205.218 83.618,206.385 84.785 C 206.833 85.233,207.200 86.119,207.200 86.753 C 207.200 87.570,207.433 87.968,208.000 88.116 C 208.473 88.239,208.800 88.662,208.800 89.147 C 208.800 89.599,209.149 90.294,209.576 90.692 C 210.121 91.199,210.389 92.068,210.476 93.607 L 210.600 95.800 213.500 95.918 L 216.400 96.035 216.400 93.818 C 216.400 92.133,216.592 91.408,217.200 90.800 C 217.640 90.360,218.000 89.660,218.000 89.245 C 218.000 88.698,218.387 88.416,219.400 88.226 C 220.238 88.069,220.800 87.730,220.800 87.382 C 220.800 87.028,221.192 86.800,221.800 86.800 C 222.350 86.800,223.160 86.440,223.600 86.000 C 224.055 85.545,224.933 85.200,225.637 85.200 C 226.508 85.200,226.933 84.979,227.070 84.455 C 227.233 83.832,227.786 83.674,230.461 83.491 C 232.566 83.347,233.898 83.055,234.360 82.636 C 234.874 82.171,235.888 82.000,238.128 82.000 C 240.760 82.000,241.264 81.887,241.693 81.200 C 242.131 80.499,242.626 80.400,245.696 80.400 C 248.667 80.400,249.322 80.278,250.000 79.600 C 250.650 78.950,251.333 78.800,253.637 78.800 C 256.138 78.800,256.500 78.705,256.684 78.000 C 256.847 77.379,257.230 77.200,258.400 77.200 C 259.570 77.200,259.953 77.021,260.116 76.400 C 260.291 75.731,260.662 75.600,262.375 75.600 C 263.828 75.600,264.492 75.425,264.655 75.000 C 264.782 74.670,265.192 74.400,265.567 74.400 C 265.942 74.400,266.612 74.062,267.055 73.649 C 267.499 73.236,268.253 72.774,268.731 72.622 C 269.209 72.470,269.600 72.096,269.600 71.791 C 269.600 71.474,270.199 71.124,271.000 70.974 C 271.802 70.823,272.400 70.474,272.400 70.155 C 272.400 69.850,272.594 69.600,272.831 69.600 C 273.365 69.600,275.600 67.402,275.600 66.877 C 275.600 66.666,275.960 66.399,276.400 66.284 C 276.840 66.169,277.200 65.788,277.200 65.437 C 277.200 65.087,277.560 64.440,278.000 64.000 C 278.440 63.560,278.800 62.840,278.800 62.400 C 278.800 61.867,279.067 61.600,279.600 61.600 C 280.267 61.600,280.400 61.333,280.400 60.000 C 280.400 58.667,280.533 58.400,281.200 58.400 C 281.845 58.400,282.000 58.133,282.000 57.027 C 282.000 56.005,282.205 55.589,282.800 55.400 C 283.461 55.190,283.600 54.795,283.600 53.117 C 283.600 51.646,283.793 50.947,284.300 50.577 C 285.100 49.992,285.604 16.812,284.831 15.621 C 284.446 15.028,280.343 14.666,278.500 15.062 M257.767 47.843 C 258.168 47.997,258.400 48.571,258.400 49.409 C 258.400 51.132,256.774 52.439,251.178 55.218 C 248.880 56.359,246.280 57.718,245.400 58.237 C 243.527 59.342,242.099 60.000,241.574 60.000 C 241.368 60.000,241.200 60.173,241.200 60.384 C 241.200 60.595,240.480 60.984,239.600 61.247 C 238.720 61.511,238.000 61.856,238.000 62.015 C 238.000 62.173,237.415 62.540,236.700 62.829 C 235.985 63.118,235.289 63.516,235.154 63.713 C 235.019 63.911,234.543 64.281,234.096 64.536 C 232.084 65.685,228.800 68.113,228.800 68.451 C 228.800 68.657,228.485 68.944,228.100 69.090 C 227.237 69.416,219.974 76.643,217.658 79.479 C 215.688 81.891,214.749 82.321,213.389 81.429 L 212.417 80.793 213.287 79.096 C 214.389 76.948,215.655 75.093,216.300 74.680 C 216.575 74.504,216.806 74.144,216.813 73.880 C 216.820 73.616,217.522 72.704,218.372 71.852 C 219.222 71.001,220.417 69.651,221.026 68.852 C 222.779 66.555,227.200 62.833,229.807 61.458 C 231.120 60.766,232.309 60.045,232.448 59.856 C 232.720 59.487,236.893 57.194,239.200 56.146 C 239.970 55.796,240.690 55.381,240.800 55.222 C 241.057 54.853,251.679 49.600,252.169 49.600 C 252.371 49.600,252.821 49.345,253.169 49.034 C 253.516 48.723,254.430 48.289,255.200 48.070 C 257.003 47.558,257.020 47.556,257.767 47.843 M162.976 54.987 C 162.549 55.310,161.829 55.580,161.375 55.587 C 160.922 55.594,160.192 55.915,159.754 56.300 C 159.315 56.685,158.606 57.198,158.178 57.441 C 156.284 58.514,157.460 63.200,159.623 63.200 C 159.999 63.200,160.401 63.560,160.516 64.000 C 160.668 64.583,161.062 64.800,161.963 64.800 C 162.828 64.800,163.200 64.992,163.200 65.437 C 163.200 65.788,163.543 66.165,163.963 66.274 C 164.383 66.384,164.816 66.817,164.926 67.237 C 165.035 67.657,165.400 68.000,165.736 68.000 C 166.071 68.000,166.460 68.360,166.600 68.800 C 166.740 69.240,167.112 69.600,167.427 69.600 C 167.742 69.600,168.000 69.858,168.000 70.173 C 168.000 70.488,168.360 70.860,168.800 71.000 C 169.240 71.140,169.600 71.500,169.600 71.800 C 169.600 72.100,169.960 72.460,170.400 72.600 C 170.840 72.740,171.200 73.100,171.200 73.400 C 171.200 73.700,171.560 74.060,172.000 74.200 C 172.440 74.340,172.800 74.712,172.800 75.027 C 172.800 75.342,173.160 75.600,173.600 75.600 C 174.133 75.600,174.400 75.867,174.400 76.400 C 174.400 76.933,174.667 77.200,175.200 77.200 C 175.733 77.200,176.000 77.467,176.000 78.000 C 176.000 78.533,176.267 78.800,176.800 78.800 C 177.333 78.800,177.600 79.067,177.600 79.600 C 177.600 80.133,177.867 80.400,178.400 80.400 C 178.933 80.400,179.200 80.667,179.200 81.200 C 179.200 81.644,179.467 82.000,179.800 82.000 C 180.130 82.000,180.400 82.256,180.400 82.569 C 180.400 82.882,180.850 83.673,181.400 84.327 C 181.950 84.981,182.400 85.715,182.400 85.958 C 182.400 86.201,182.584 86.400,182.810 86.400 C 183.035 86.400,183.391 86.850,183.600 87.400 C 183.809 87.950,184.255 88.400,184.590 88.400 C 185.018 88.400,185.200 88.809,185.200 89.773 C 185.200 90.795,185.405 91.211,186.000 91.400 C 186.595 91.589,186.800 92.005,186.800 93.027 C 186.800 93.867,187.111 94.711,187.600 95.200 C 188.043 95.643,188.400 96.533,188.400 97.197 C 188.400 97.960,188.690 98.574,189.200 98.893 C 189.838 99.291,190.000 99.826,190.000 101.534 C 190.000 103.338,190.126 103.708,190.800 103.884 C 191.475 104.061,191.600 104.430,191.600 106.247 C 191.600 107.867,191.798 108.598,192.400 109.200 C 193.105 109.905,193.200 110.535,193.202 114.500 C 193.204 117.721,193.376 119.328,193.806 120.152 C 194.340 121.177,194.340 121.437,193.803 122.514 C 192.936 124.252,193.012 126.671,193.950 127.173 C 194.740 127.596,195.383 129.200,194.763 129.200 C 194.563 129.200,194.400 128.840,194.400 128.400 C 194.400 127.691,194.133 127.600,192.047 127.600 C 190.030 127.600,189.663 127.486,189.484 126.800 C 189.309 126.132,188.938 126.000,187.237 126.000 C 185.467 126.000,185.200 125.895,185.200 125.200 C 185.200 124.671,184.933 124.400,184.414 124.400 C 183.982 124.400,183.435 124.040,183.200 123.600 C 182.933 123.101,182.362 122.800,181.682 122.800 C 181.026 122.800,180.394 122.482,180.093 122.000 C 179.774 121.490,179.160 121.200,178.397 121.200 C 177.640 121.200,177.200 120.995,177.200 120.643 C 177.200 120.031,176.359 119.600,175.167 119.600 C 174.745 119.600,174.040 119.240,173.600 118.800 C 173.160 118.360,172.369 118.000,171.843 118.000 C 171.316 118.000,170.786 117.740,170.664 117.422 C 170.542 117.104,169.758 116.718,168.921 116.564 C 168.084 116.410,166.971 115.950,166.446 115.542 C 165.921 115.134,164.976 114.800,164.346 114.800 C 163.633 114.800,163.200 114.589,163.200 114.243 C 163.200 113.605,162.350 113.200,161.010 113.200 C 160.502 113.200,159.982 112.930,159.855 112.600 C 159.693 112.178,159.035 112.000,157.640 112.000 C 156.005 112.000,155.609 111.858,155.400 111.200 C 155.203 110.579,154.795 110.400,153.573 110.400 C 152.495 110.400,152.000 110.225,152.000 109.843 C 152.000 109.062,151.098 108.800,148.414 108.800 C 146.430 108.800,146.063 108.684,145.884 108.000 C 145.693 107.270,145.338 107.200,141.825 107.200 C 138.772 107.200,137.927 107.076,137.745 106.600 C 137.569 106.141,136.815 106.000,134.545 106.000 C 132.274 106.000,131.521 106.141,131.345 106.600 C 131.159 107.085,130.239 107.200,126.561 107.200 C 122.440 107.200,121.959 107.276,121.507 108.000 C 121.077 108.688,120.574 108.800,117.907 108.800 C 115.240 108.800,114.737 108.912,114.307 109.600 C 113.935 110.197,113.374 110.400,112.104 110.400 C 110.667 110.400,110.400 110.525,110.400 111.200 C 110.400 111.891,110.133 112.000,108.449 112.000 C 107.268 112.000,106.315 112.220,106.035 112.558 C 105.780 112.865,104.938 113.235,104.165 113.380 C 103.391 113.525,102.665 113.887,102.551 114.183 C 102.438 114.479,101.727 114.837,100.972 114.979 C 100.204 115.123,99.600 115.477,99.600 115.783 C 99.600 116.109,98.954 116.439,98.000 116.600 C 97.016 116.766,96.400 117.088,96.400 117.435 C 96.400 117.746,96.040 118.000,95.600 118.000 C 95.067 118.000,94.800 118.267,94.800 118.800 C 94.800 119.452,94.533 119.600,93.363 119.600 C 92.262 119.600,91.876 119.787,91.716 120.400 C 91.600 120.843,91.170 121.200,90.753 121.200 C 90.267 121.200,90.000 121.483,90.000 122.000 C 90.000 122.619,89.733 122.800,88.823 122.800 C 88.144 122.800,87.424 123.107,87.123 123.526 C 86.835 123.926,86.285 124.370,85.900 124.514 C 85.515 124.657,85.200 125.051,85.200 125.387 C 85.200 125.733,84.852 126.000,84.400 126.000 C 83.867 126.000,83.600 126.267,83.600 126.800 C 83.600 127.297,83.333 127.600,82.896 127.600 C 82.509 127.600,81.968 127.960,81.693 128.400 C 81.418 128.840,80.935 129.200,80.619 129.200 C 80.304 129.200,79.810 129.527,79.523 129.926 C 79.235 130.326,78.685 130.770,78.300 130.914 C 77.915 131.057,77.600 131.451,77.600 131.787 C 77.600 132.124,77.373 132.400,77.096 132.400 C 76.818 132.400,76.143 132.953,75.596 133.629 C 75.048 134.304,73.839 135.699,72.909 136.729 C 71.979 137.758,71.214 138.915,71.209 139.300 C 71.203 139.730,70.892 140.000,70.400 140.000 C 69.883 140.000,69.600 140.267,69.600 140.753 C 69.600 141.170,69.243 141.600,68.800 141.716 C 68.360 141.831,68.000 142.212,68.000 142.563 C 68.000 142.913,67.730 143.200,67.400 143.200 C 67.070 143.200,66.800 143.529,66.800 143.930 C 66.800 144.332,66.350 145.083,65.800 145.600 C 65.250 146.117,64.800 146.784,64.800 147.082 C 64.800 147.381,64.537 147.726,64.215 147.850 C 63.894 147.973,63.510 148.454,63.362 148.918 C 63.215 149.383,62.848 150.009,62.547 150.310 C 62.246 150.611,62.000 151.192,62.000 151.602 C 62.000 152.011,61.640 152.460,61.200 152.600 C 60.612 152.787,60.400 153.205,60.400 154.180 C 60.400 155.170,60.197 155.560,59.600 155.716 C 58.994 155.875,58.800 156.262,58.800 157.316 C 58.800 158.370,58.606 158.757,58.000 158.916 C 57.394 159.075,57.200 159.462,57.200 160.516 C 57.200 161.570,57.006 161.957,56.400 162.116 C 55.771 162.280,55.600 162.662,55.600 163.901 C 55.600 164.968,55.342 165.709,54.800 166.200 C 54.264 166.685,54.000 167.432,54.000 168.462 C 54.000 169.505,53.822 170.000,53.447 170.000 C 52.812 170.000,52.413 171.202,52.405 173.137 C 52.402 173.872,52.040 174.931,51.600 175.491 C 50.986 176.271,50.800 177.114,50.800 179.110 C 50.800 181.096,50.639 181.829,50.121 182.209 C 49.584 182.601,49.405 183.536,49.269 186.646 C 49.150 189.365,48.896 190.893,48.448 191.576 C 47.451 193.097,47.463 233.138,48.461 234.258 C 48.941 234.797,49.160 235.965,49.261 238.532 C 49.371 241.326,49.546 242.171,50.100 242.576 C 50.659 242.985,50.800 243.693,50.800 246.084 C 50.800 249.089,51.364 251.600,52.039 251.600 C 52.238 251.600,52.400 252.845,52.400 254.367 C 52.400 257.488,52.636 258.400,53.443 258.400 C 53.862 258.400,54.000 259.045,54.000 261.004 C 54.000 263.113,54.152 263.738,54.800 264.293 C 55.429 264.831,55.600 265.473,55.600 267.289 C 55.600 269.067,55.785 269.785,56.400 270.400 C 56.923 270.923,57.200 271.733,57.200 272.738 C 57.200 273.768,57.464 274.515,58.000 275.000 C 58.613 275.555,58.800 276.232,58.800 277.899 C 58.800 279.738,58.924 280.107,59.600 280.284 C 60.273 280.460,60.400 280.830,60.400 282.620 C 60.400 284.395,60.532 284.788,61.200 285.000 C 61.871 285.213,62.000 285.605,62.000 287.427 C 62.000 289.092,62.140 289.600,62.600 289.600 C 63.022 289.600,63.200 290.026,63.200 291.037 C 63.200 292.108,63.392 292.525,63.952 292.672 C 64.528 292.822,64.751 293.346,64.900 294.901 C 65.019 296.136,65.352 297.122,65.748 297.411 C 66.106 297.674,66.400 298.259,66.400 298.711 C 66.400 299.956,66.821 300.800,67.443 300.800 C 67.807 300.800,68.000 301.259,68.000 302.125 C 68.000 302.896,68.334 303.808,68.800 304.308 C 69.240 304.780,69.600 305.624,69.600 306.183 C 69.600 306.742,69.960 307.560,70.400 308.000 C 70.840 308.440,71.200 309.160,71.200 309.600 C 71.200 310.040,71.560 310.760,72.000 311.200 C 72.455 311.655,72.800 312.533,72.800 313.237 C 72.800 314.138,73.017 314.532,73.600 314.684 C 74.119 314.820,74.400 315.230,74.400 315.851 C 74.400 316.377,74.760 317.116,75.200 317.493 C 75.698 317.919,76.000 318.673,76.000 319.489 C 76.000 320.533,76.163 320.800,76.800 320.800 C 77.387 320.800,77.600 321.067,77.600 321.804 C 77.600 322.356,77.960 323.116,78.400 323.493 C 78.840 323.870,79.200 324.575,79.200 325.060 C 79.200 325.546,79.446 326.189,79.747 326.490 C 80.048 326.791,80.420 327.434,80.574 327.919 C 80.728 328.403,81.092 328.800,81.382 328.800 C 81.673 328.800,82.031 329.439,82.178 330.221 C 82.324 331.003,82.704 331.742,83.022 331.864 C 83.340 331.986,83.600 332.426,83.600 332.843 C 83.600 333.333,83.882 333.600,84.400 333.600 C 85.019 333.600,85.200 333.867,85.200 334.777 C 85.200 335.456,85.507 336.176,85.926 336.477 C 86.326 336.765,86.770 337.315,86.914 337.700 C 87.057 338.085,87.451 338.400,87.787 338.400 C 88.125 338.400,88.400 338.745,88.400 339.167 C 88.400 340.359,88.831 341.200,89.443 341.200 C 89.749 341.200,90.000 341.560,90.000 342.000 C 90.000 342.533,90.267 342.800,90.800 342.800 C 91.333 342.800,91.600 343.067,91.600 343.600 C 91.600 344.133,91.867 344.400,92.400 344.400 C 92.933 344.400,93.200 344.667,93.200 345.200 C 93.200 345.640,93.560 346.360,94.000 346.800 C 94.440 347.240,94.800 347.786,94.800 348.013 C 94.800 348.239,95.084 348.534,95.431 348.667 C 95.777 348.800,96.223 349.335,96.421 349.855 C 96.618 350.375,97.055 350.800,97.390 350.800 C 97.726 350.800,98.000 351.000,98.000 351.245 C 98.000 351.489,99.350 353.005,101.000 354.613 C 102.650 356.220,104.000 357.730,104.000 357.968 C 104.000 358.206,104.360 358.400,104.800 358.400 C 105.250 358.400,105.600 358.667,105.600 359.010 C 105.600 359.345,106.050 359.791,106.600 360.000 C 107.150 360.209,107.600 360.556,107.600 360.771 C 107.600 360.986,108.230 361.461,109.000 361.827 C 109.770 362.192,110.400 362.651,110.400 362.846 C 110.400 363.041,110.760 363.200,111.200 363.200 C 111.733 363.200,112.000 363.467,112.000 364.000 C 112.000 364.440,112.258 364.800,112.573 364.800 C 112.888 364.800,113.260 365.160,113.400 365.600 C 113.540 366.040,114.002 366.400,114.427 366.400 C 114.852 366.400,115.200 366.662,115.200 366.982 C 115.200 367.330,115.762 367.669,116.600 367.826 C 117.419 367.980,118.000 368.325,118.000 368.657 C 118.000 368.969,118.301 369.341,118.669 369.482 C 119.038 369.623,119.668 370.068,120.069 370.469 C 120.471 370.871,121.250 371.200,121.800 371.200 C 122.448 371.200,122.800 371.424,122.800 371.837 C 122.800 372.188,123.148 372.566,123.572 372.677 C 123.997 372.788,124.438 373.121,124.551 373.417 C 124.665 373.714,125.397 374.076,126.179 374.222 C 126.997 374.376,127.600 374.725,127.600 375.045 C 127.600 375.409,128.065 375.600,128.953 375.600 C 129.970 375.600,130.359 375.799,130.516 376.400 C 130.676 377.013,131.062 377.200,132.163 377.200 C 133.333 377.200,133.600 377.348,133.600 378.000 C 133.600 378.663,133.867 378.800,135.153 378.800 C 136.370 378.800,136.752 378.973,136.916 379.600 C 137.073 380.199,137.462 380.400,138.466 380.400 C 139.374 380.400,139.969 380.658,140.307 381.200 C 140.686 381.807,141.240 382.000,142.603 382.000 C 143.867 382.000,144.637 382.237,145.200 382.800 C 145.733 383.333,146.533 383.600,147.600 383.600 C 148.667 383.600,149.467 383.867,150.000 384.400 C 150.708 385.108,151.333 385.200,155.456 385.200 C 159.428 385.200,160.187 385.303,160.624 385.900 C 161.066 386.504,161.844 386.600,166.326 386.600 C 170.708 386.600,171.636 386.491,172.290 385.900 C 172.913 385.336,173.807 385.200,176.899 385.200 C 181.069 385.200,182.000 385.010,182.000 384.157 C 182.000 383.755,182.557 383.600,183.997 383.600 C 185.560 383.600,186.102 383.426,186.493 382.800 C 186.897 382.153,187.426 382.000,189.264 382.000 C 191.900 382.000,192.800 381.735,192.800 380.957 C 192.800 379.938,206.965 380.165,208.000 381.200 C 208.632 381.832,209.333 382.000,211.338 382.000 C 213.368 382.000,214.021 382.160,214.600 382.800 C 215.049 383.296,215.832 383.600,216.662 383.600 C 217.467 383.600,218.319 383.919,218.800 384.400 C 219.492 385.092,220.133 385.200,223.553 385.200 C 227.170 385.200,227.524 385.268,227.716 386.000 C 228.038 387.233,238.923 387.233,239.693 386.000 C 240.131 385.298,240.626 385.200,243.734 385.200 C 246.938 385.200,247.295 385.124,247.484 384.400 C 247.657 383.738,248.030 383.600,249.643 383.600 C 251.160 383.600,251.704 383.422,252.093 382.800 C 252.481 382.179,253.026 382.000,254.534 382.000 C 256.138 382.000,256.511 381.861,256.684 381.200 C 256.848 380.573,257.230 380.400,258.447 380.400 C 259.733 380.400,260.000 380.263,260.000 379.600 C 260.000 378.941,260.267 378.800,261.512 378.800 C 262.565 378.800,263.198 378.557,263.600 378.000 C 263.925 377.550,264.635 377.200,265.226 377.200 C 265.804 377.200,266.602 376.840,267.000 376.400 C 267.398 375.960,268.214 375.600,268.813 375.600 C 269.412 375.600,270.110 375.349,270.365 375.042 C 270.620 374.735,271.462 374.365,272.235 374.220 C 273.009 374.075,273.742 373.696,273.864 373.378 C 273.986 373.060,274.392 372.800,274.767 372.800 C 275.142 372.800,275.836 372.440,276.308 372.000 C 276.780 371.560,277.461 371.200,277.821 371.200 C 278.181 371.200,278.569 370.840,278.684 370.400 C 278.843 369.794,279.230 369.600,280.284 369.600 C 281.290 369.600,281.727 369.400,281.864 368.875 C 281.969 368.476,282.627 367.981,283.327 367.775 C 284.276 367.495,284.697 367.069,284.983 366.100 C 285.317 364.965,285.537 364.800,286.720 364.800 C 287.738 364.800,288.127 364.601,288.284 364.000 C 288.434 363.426,288.830 363.200,289.684 363.200 C 290.538 363.200,290.934 362.974,291.084 362.400 C 291.200 361.957,291.630 361.600,292.047 361.600 C 292.533 361.600,292.800 361.317,292.800 360.800 C 292.800 360.267,293.067 360.000,293.600 360.000 C 294.133 360.000,294.400 359.733,294.400 359.200 C 294.400 358.667,294.667 358.400,295.200 358.400 C 295.640 358.400,296.000 358.151,296.000 357.847 C 296.000 357.542,296.360 357.199,296.800 357.084 C 297.240 356.969,297.600 356.609,297.600 356.284 C 297.600 355.959,297.960 355.599,298.400 355.484 C 298.840 355.369,299.200 355.009,299.200 354.684 C 299.200 354.359,299.560 353.999,300.000 353.884 C 300.440 353.769,300.800 353.409,300.800 353.084 C 300.800 352.759,301.160 352.399,301.600 352.284 C 302.040 352.169,302.400 351.809,302.400 351.484 C 302.400 351.159,302.760 350.799,303.200 350.684 C 303.640 350.569,304.000 350.188,304.000 349.837 C 304.000 349.487,304.270 349.200,304.600 349.200 C 304.930 349.200,305.200 348.936,305.200 348.614 C 305.200 348.292,305.560 347.835,306.000 347.600 C 306.440 347.365,306.800 347.013,306.800 346.819 C 306.800 346.624,307.520 345.716,308.400 344.800 C 309.280 343.884,310.000 342.789,310.000 342.367 C 310.000 341.932,310.276 341.600,310.637 341.600 C 310.988 341.600,311.367 341.246,311.481 340.813 C 311.594 340.381,312.027 339.918,312.443 339.786 C 312.859 339.654,313.200 339.198,313.200 338.773 C 313.200 338.348,313.451 338.000,313.757 338.000 C 314.369 338.000,314.800 337.159,314.800 335.967 C 314.800 335.467,315.078 335.200,315.600 335.200 C 316.129 335.200,316.400 334.933,316.400 334.414 C 316.400 333.982,316.760 333.435,317.200 333.200 C 317.713 332.926,318.000 332.362,318.000 331.633 C 318.000 330.830,318.236 330.432,318.800 330.284 C 319.240 330.169,319.600 329.771,319.600 329.401 C 319.600 329.030,319.960 328.269,320.400 327.709 C 320.840 327.150,321.200 326.446,321.200 326.146 C 321.200 325.846,321.560 325.240,322.000 324.800 C 322.440 324.360,322.800 323.640,322.800 323.200 C 322.800 322.760,323.062 322.400,323.382 322.400 C 323.733 322.400,324.070 321.831,324.232 320.968 C 324.380 320.181,324.748 319.441,325.051 319.325 C 325.362 319.206,325.600 318.546,325.600 317.804 C 325.600 316.830,325.805 316.440,326.400 316.284 C 327.006 316.125,327.200 315.738,327.200 314.684 C 327.200 313.630,327.394 313.243,328.000 313.084 C 328.606 312.925,328.800 312.538,328.800 311.484 C 328.800 310.430,328.994 310.043,329.600 309.884 C 330.213 309.724,330.400 309.338,330.400 308.237 C 330.400 307.275,330.584 306.800,330.957 306.800 C 331.569 306.800,332.000 305.959,332.000 304.767 C 332.000 304.345,332.360 303.640,332.800 303.200 C 333.240 302.760,333.600 302.040,333.600 301.600 C 333.600 301.160,333.960 300.440,334.400 300.000 C 334.925 299.475,335.200 298.667,335.200 297.647 C 335.200 296.430,335.373 296.048,336.000 295.884 C 336.658 295.712,336.800 295.338,336.800 293.782 C 336.800 292.493,337.008 291.736,337.452 291.411 C 337.858 291.114,338.183 290.116,338.313 288.767 C 338.427 287.575,338.776 286.414,339.087 286.186 C 339.398 285.958,339.755 284.968,339.879 283.986 C 340.003 283.004,340.386 281.878,340.728 281.485 C 341.092 281.067,341.424 279.737,341.526 278.285 C 341.633 276.756,341.912 275.677,342.250 275.480 C 342.610 275.271,342.800 274.408,342.800 272.980 C 342.800 271.067,342.898 270.800,343.600 270.800 C 344.315 270.800,344.400 270.533,344.400 268.288 C 344.400 266.235,344.546 265.671,345.200 265.200 C 345.826 264.749,346.000 264.165,346.000 262.512 C 346.000 260.933,346.202 260.198,346.800 259.600 C 347.425 258.975,347.600 258.267,347.600 256.363 C 347.600 254.532,347.799 253.673,348.400 252.909 C 349.027 252.112,349.200 251.286,349.200 249.090 C 349.200 246.883,349.349 246.180,349.900 245.777 C 350.463 245.365,350.627 244.515,350.739 241.433 C 350.815 239.325,351.022 237.600,351.199 237.600 C 351.982 237.600,352.400 234.655,352.400 229.140 C 352.400 225.873,352.558 223.200,352.751 223.200 C 354.258 223.200,354.587 195.352,353.100 193.710 C 352.518 193.067,352.400 192.154,352.400 188.287 C 352.400 183.930,351.959 181.600,351.136 181.600 C 350.951 181.600,350.800 180.374,350.800 178.875 C 350.800 176.704,350.638 175.977,350.000 175.292 C 349.479 174.733,349.200 173.881,349.200 172.849 C 349.200 170.879,348.878 170.000,348.157 170.000 C 347.765 170.000,347.600 169.477,347.600 168.233 C 347.600 166.086,347.296 165.200,346.557 165.200 C 346.184 165.200,346.000 164.725,346.000 163.763 C 346.000 162.662,345.813 162.276,345.200 162.116 C 344.579 161.953,344.400 161.570,344.400 160.400 C 344.400 159.230,344.221 158.847,343.600 158.684 C 343.015 158.531,342.800 158.138,342.800 157.225 C 342.800 156.522,342.555 155.881,342.239 155.760 C 341.931 155.641,341.563 154.927,341.421 154.172 C 341.280 153.418,340.987 152.800,340.772 152.800 C 340.556 152.800,340.209 152.350,340.000 151.800 C 339.791 151.250,339.365 150.800,339.054 150.800 C 338.725 150.800,338.379 150.216,338.226 149.400 C 338.069 148.562,337.730 148.000,337.382 148.000 C 337.062 148.000,336.800 147.652,336.800 147.227 C 336.800 146.802,336.440 146.340,336.000 146.200 C 335.560 146.060,335.200 145.716,335.200 145.435 C 335.200 145.154,334.856 144.613,334.436 144.233 C 334.016 143.852,333.562 143.104,333.428 142.571 C 333.294 142.037,332.939 141.600,332.639 141.600 C 332.339 141.600,331.999 141.240,331.884 140.800 C 331.769 140.360,331.388 140.000,331.037 140.000 C 330.667 140.000,330.400 139.665,330.400 139.200 C 330.400 138.667,330.133 138.400,329.600 138.400 C 329.067 138.400,328.800 138.133,328.800 137.600 C 328.800 137.067,328.533 136.800,328.000 136.800 C 327.467 136.800,327.200 136.533,327.200 136.000 C 327.200 135.467,326.933 135.200,326.400 135.200 C 325.867 135.200,325.600 134.933,325.600 134.400 C 325.600 133.960,325.351 133.600,325.047 133.600 C 324.742 133.600,324.399 133.240,324.284 132.800 C 324.169 132.360,323.809 132.000,323.484 132.000 C 323.159 132.000,322.799 131.640,322.684 131.200 C 322.569 130.760,322.188 130.400,321.837 130.400 C 321.487 130.400,321.200 130.130,321.200 129.800 C 321.200 129.467,320.844 129.200,320.400 129.200 C 319.867 129.200,319.600 128.933,319.600 128.400 C 319.600 127.883,319.333 127.600,318.847 127.600 C 318.430 127.600,318.000 127.243,317.884 126.800 C 317.769 126.360,317.409 126.000,317.084 126.000 C 316.759 126.000,316.399 125.640,316.284 125.200 C 316.169 124.760,315.788 124.400,315.437 124.400 C 315.087 124.400,314.440 124.040,314.000 123.600 C 313.560 123.160,312.840 122.800,312.400 122.800 C 311.867 122.800,311.600 122.533,311.600 122.000 C 311.600 121.483,311.333 121.200,310.847 121.200 C 310.430 121.200,310.000 120.843,309.884 120.400 C 309.732 119.817,309.338 119.600,308.437 119.600 C 307.595 119.600,307.200 119.405,307.200 118.990 C 307.200 118.655,306.750 118.209,306.200 118.000 C 305.650 117.791,305.200 117.444,305.200 117.228 C 305.200 117.013,304.570 116.718,303.800 116.574 C 303.030 116.429,302.400 116.079,302.400 115.795 C 302.400 115.511,301.905 115.070,301.300 114.816 C 299.778 114.177,297.569 112.929,297.062 112.422 C 296.830 112.190,296.176 112.000,295.609 112.000 C 295.042 112.000,294.270 111.640,293.893 111.200 C 293.423 110.651,292.713 110.400,291.631 110.400 C 290.405 110.400,289.997 110.222,289.800 109.600 C 289.589 108.935,289.195 108.800,287.469 108.800 C 285.826 108.800,285.288 108.633,284.893 108.000 C 284.473 107.328,283.960 107.200,281.693 107.200 C 279.426 107.200,278.912 107.072,278.493 106.400 C 278.013 105.631,277.560 105.600,266.859 105.600 C 256.232 105.600,255.691 105.636,255.000 106.400 C 254.509 106.942,253.768 107.200,252.701 107.200 C 251.462 107.200,251.080 107.371,250.916 108.000 C 250.742 108.665,250.370 108.800,248.716 108.800 C 247.062 108.800,246.690 108.935,246.516 109.600 C 246.352 110.227,245.970 110.400,244.753 110.400 C 243.467 110.400,243.200 110.537,243.200 111.200 C 243.200 111.849,242.933 112.000,241.787 112.000 C 240.901 112.000,240.289 112.223,240.145 112.600 C 240.018 112.930,239.498 113.200,238.990 113.200 C 237.679 113.200,236.800 113.601,236.800 114.198 C 236.800 114.480,236.161 114.831,235.379 114.978 C 234.597 115.124,233.865 115.487,233.751 115.783 C 233.638 116.079,232.944 116.434,232.211 116.572 C 231.477 116.709,230.782 117.070,230.666 117.373 C 230.549 117.676,229.917 118.043,229.260 118.187 C 228.604 118.331,227.967 118.708,227.846 119.024 C 227.724 119.341,227.259 119.600,226.813 119.600 C 226.267 119.600,226.000 119.863,226.000 120.400 C 226.000 121.052,225.733 121.200,224.563 121.200 C 223.462 121.200,223.076 121.387,222.916 122.000 C 222.800 122.443,222.370 122.800,221.953 122.800 C 221.539 122.800,220.840 123.160,220.400 123.600 C 219.960 124.040,219.240 124.400,218.800 124.400 C 218.267 124.400,218.000 124.667,218.000 125.200 C 218.000 125.864,217.733 126.000,216.433 126.000 C 214.478 126.000,213.600 126.323,213.600 127.043 C 213.600 127.426,213.101 127.600,212.000 127.600 C 210.667 127.600,210.400 127.733,210.400 128.400 C 210.400 129.019,210.151 129.188,209.300 129.146 C 208.357 129.099,208.328 129.066,209.100 128.918 C 210.429 128.662,210.524 117.262,209.200 116.916 C 208.597 116.758,208.400 116.370,208.400 115.341 C 208.400 114.527,208.169 113.886,207.830 113.756 C 207.516 113.636,207.140 112.831,206.995 111.969 C 206.847 111.096,206.502 110.400,206.216 110.400 C 205.926 110.400,205.591 109.703,205.446 108.800 C 205.281 107.765,204.980 107.200,204.595 107.200 C 204.171 107.200,204.000 106.757,204.000 105.662 C 204.000 104.632,203.736 103.885,203.200 103.400 C 202.760 103.002,202.400 102.254,202.400 101.738 C 202.400 101.222,202.040 100.440,201.600 100.000 C 201.157 99.557,200.800 98.667,200.800 98.003 C 200.800 97.240,200.510 96.626,200.000 96.307 C 199.466 95.974,199.200 95.374,199.200 94.504 C 199.200 93.467,199.036 93.200,198.400 93.200 C 197.739 93.200,197.600 92.933,197.600 91.662 C 197.600 90.632,197.336 89.885,196.800 89.400 C 196.360 89.002,196.000 88.254,196.000 87.738 C 196.000 87.067,195.773 86.800,195.200 86.800 C 194.548 86.800,194.400 86.533,194.400 85.363 C 194.400 84.262,194.213 83.876,193.600 83.716 C 192.999 83.559,192.800 83.170,192.800 82.153 C 192.800 81.217,192.615 80.800,192.200 80.800 C 191.870 80.800,191.600 80.513,191.600 80.163 C 191.600 79.812,191.253 79.434,190.829 79.323 C 190.300 79.185,189.974 78.630,189.793 77.561 C 189.645 76.685,189.302 76.000,189.011 76.000 C 188.726 76.000,188.399 75.640,188.284 75.200 C 188.169 74.760,187.788 74.400,187.437 74.400 C 187.067 74.400,186.800 74.065,186.800 73.600 C 186.800 73.067,186.533 72.800,186.000 72.800 C 185.467 72.800,185.200 72.533,185.200 72.000 C 185.200 71.560,184.840 70.840,184.400 70.400 C 183.960 69.960,183.600 69.422,183.600 69.203 C 183.600 68.985,183.240 68.582,182.800 68.307 C 182.360 68.032,182.000 67.593,182.000 67.331 C 182.000 67.068,181.640 66.740,181.200 66.600 C 180.760 66.460,180.400 66.100,180.400 65.800 C 180.400 65.500,180.040 65.140,179.600 65.000 C 179.160 64.860,178.800 64.471,178.800 64.136 C 178.800 63.800,178.440 63.431,178.000 63.316 C 177.560 63.201,177.200 62.858,177.200 62.553 C 177.200 62.249,176.840 62.000,176.400 62.000 C 175.867 62.000,175.600 61.733,175.600 61.200 C 175.600 60.760,175.351 60.400,175.047 60.400 C 174.742 60.400,174.399 60.040,174.284 59.600 C 174.169 59.160,173.809 58.800,173.484 58.800 C 173.159 58.800,172.799 58.440,172.684 58.000 C 172.559 57.521,172.138 57.200,171.637 57.200 C 171.067 57.200,170.800 56.945,170.800 56.400 C 170.800 55.737,170.533 55.600,169.243 55.600 C 168.228 55.600,167.605 55.391,167.455 55.000 C 167.150 54.205,164.022 54.196,162.976 54.987 M272.800 127.017 C 273.570 127.300,275.274 127.643,276.586 127.780 C 277.898 127.916,279.501 128.291,280.147 128.614 C 280.794 128.936,281.631 129.200,282.008 129.200 C 282.384 129.200,283.150 129.560,283.709 130.000 C 284.269 130.440,284.878 130.803,285.063 130.806 C 285.884 130.819,297.200 141.799,297.200 142.582 C 297.200 142.720,297.554 143.320,297.988 143.916 C 300.952 147.996,298.279 158.400,294.266 158.400 C 293.824 158.400,293.115 158.715,292.690 159.100 C 291.566 160.117,279.371 160.138,276.987 159.127 C 276.114 158.757,274.743 158.347,273.940 158.216 C 273.137 158.086,272.260 157.714,271.991 157.389 C 271.722 157.065,271.188 156.800,270.805 156.800 C 270.422 156.800,269.650 156.440,269.091 156.000 C 268.531 155.560,267.979 155.200,267.863 155.200 C 267.393 155.200,263.600 152.656,263.600 152.340 C 263.600 152.153,263.440 152.000,263.245 152.000 C 262.082 152.000,257.114 146.196,255.506 142.958 C 253.699 139.321,253.549 132.704,255.229 130.767 C 255.653 130.278,256.000 129.725,256.000 129.539 C 256.000 129.352,256.270 129.200,256.600 129.200 C 256.930 129.200,257.200 129.049,257.200 128.864 C 257.200 128.343,259.106 127.600,260.445 127.600 C 261.109 127.600,262.023 127.402,262.475 127.160 C 264.634 126.004,269.848 125.932,272.800 127.017 M312.304 161.695 C 319.841 165.459,320.758 175.206,313.939 179.079 C 311.995 180.184,306.564 180.394,304.727 179.435 C 304.137 179.127,303.102 178.754,302.428 178.606 C 297.310 177.482,296.425 166.528,301.190 163.287 C 305.208 160.554,308.947 160.018,312.304 161.695 " stroke="none" fill="#cc2323" fill-rule="evenodd"></path><path id="path2" d="M254.006 49.223 C 253.219 49.662,252.904 50.000,253.283 50.000 C 253.651 50.000,254.062 49.823,254.196 49.606 C 254.330 49.390,255.016 49.046,255.720 48.842 C 256.485 48.621,256.678 48.467,256.200 48.459 C 255.760 48.452,254.773 48.796,254.006 49.223 M257.448 49.062 C 257.580 49.567,257.257 50.239,256.526 50.979 C 255.538 51.978,255.513 52.058,256.320 51.634 C 257.524 51.001,258.306 49.346,257.692 48.732 C 257.363 48.403,257.298 48.490,257.448 49.062 M250.600 50.827 C 249.940 51.250,249.580 51.596,249.800 51.595 C 250.020 51.595,250.740 51.237,251.400 50.800 C 252.060 50.363,252.420 50.017,252.200 50.032 C 251.980 50.047,251.260 50.404,250.600 50.827 M247.400 52.427 C 246.740 52.850,246.380 53.196,246.600 53.195 C 246.820 53.195,247.540 52.837,248.200 52.400 C 248.860 51.963,249.220 51.617,249.000 51.632 C 248.780 51.647,248.060 52.004,247.400 52.427 M253.800 52.827 C 253.140 53.250,252.805 53.597,253.056 53.598 C 253.306 53.599,253.936 53.246,254.456 52.813 C 255.645 51.823,255.359 51.829,253.800 52.827 M244.400 54.000 C 243.630 54.422,243.144 54.774,243.320 54.783 C 243.744 54.805,246.000 53.632,246.000 53.390 C 246.000 53.128,245.977 53.137,244.400 54.000 M247.800 55.759 C 244.917 57.379,243.392 58.397,243.846 58.399 C 244.091 58.399,244.750 58.040,245.309 57.600 C 245.869 57.160,246.478 56.799,246.663 56.798 C 246.848 56.797,247.720 56.352,248.600 55.810 C 250.596 54.581,249.968 54.540,247.800 55.759 M237.712 57.499 C 236.344 58.301,235.285 59.019,235.359 59.093 C 235.433 59.167,236.733 58.504,238.247 57.621 C 239.761 56.737,240.820 56.020,240.600 56.026 C 240.380 56.033,239.081 56.696,237.712 57.499 M241.100 59.426 C 240.055 59.970,239.200 60.505,239.200 60.614 C 239.200 60.724,240.100 60.357,241.200 59.800 C 242.300 59.243,243.200 58.700,243.200 58.593 C 243.200 58.329,243.236 58.314,241.100 59.426 M233.811 59.582 C 233.682 59.792,232.680 60.451,231.586 61.046 C 230.491 61.642,229.664 62.198,229.748 62.281 C 229.924 62.457,232.566 60.977,233.954 59.924 C 234.479 59.526,234.714 59.200,234.478 59.200 C 234.241 59.200,233.941 59.372,233.811 59.582 M236.600 61.810 C 235.720 62.352,235.180 62.791,235.400 62.785 C 235.620 62.780,236.520 62.332,237.400 61.790 C 238.280 61.248,238.820 60.809,238.600 60.815 C 238.380 60.820,237.480 61.268,236.600 61.810 M228.019 63.100 C 221.074 68.254,211.905 80.363,214.400 81.087 C 214.885 81.227,214.896 81.188,214.457 80.880 C 212.881 79.776,221.263 68.756,226.927 64.487 C 228.909 62.993,229.522 62.400,229.081 62.400 C 229.016 62.400,228.538 62.715,228.019 63.100 M229.726 66.450 C 226.222 69.196,220.194 74.968,218.289 77.400 C 217.600 78.280,218.620 77.336,220.554 75.302 C 223.703 71.992,228.902 67.354,232.201 64.913 C 232.860 64.425,233.277 64.020,233.126 64.013 C 232.976 64.006,231.446 65.102,229.726 66.450 M216.075 80.016 C 215.594 80.464,215.200 80.946,215.200 81.085 C 215.200 81.225,215.650 80.917,216.200 80.400 C 217.138 79.519,217.371 79.200,217.075 79.200 C 217.007 79.200,216.557 79.567,216.075 80.016 M264.800 127.200 C 264.005 127.714,265.004 127.714,266.200 127.200 L 267.000 126.856 266.200 126.834 C 265.760 126.822,265.130 126.987,264.800 127.200 M270.200 127.378 C 271.080 127.713,272.250 127.970,272.800 127.948 C 273.603 127.916,273.524 127.843,272.400 127.576 C 269.150 126.804,268.556 126.751,270.200 127.378 M276.400 128.621 C 277.390 128.933,278.470 129.172,278.800 129.152 C 279.626 129.103,276.394 128.062,275.400 128.057 C 274.960 128.055,275.410 128.309,276.400 128.621 M257.505 129.136 C 256.902 129.501,256.320 130.031,256.211 130.315 C 256.102 130.598,256.685 130.336,257.507 129.731 C 258.328 129.127,259.075 128.580,259.167 128.516 C 259.798 128.076,258.385 128.603,257.505 129.136 M283.633 130.916 C 283.725 130.980,284.520 131.533,285.400 132.145 L 287.000 133.258 285.615 132.029 C 284.853 131.353,284.058 130.800,283.848 130.800 C 283.638 130.800,283.542 130.852,283.633 130.916 M287.209 133.242 C 287.204 133.375,288.999 135.254,291.199 137.418 C 295.850 141.995,297.142 143.726,297.839 146.317 C 298.163 147.521,298.353 147.839,298.364 147.200 C 298.403 145.091,296.772 142.694,292.013 137.865 C 289.375 135.189,287.213 133.109,287.209 133.242 M254.830 139.600 C 254.828 140.176,255.957 142.466,255.986 141.946 C 255.994 141.806,255.737 141.086,255.416 140.346 C 255.094 139.606,254.831 139.270,254.830 139.600 M256.000 142.672 C 256.000 144.209,262.472 151.342,265.400 153.032 C 266.892 153.893,266.771 153.767,263.812 151.376 C 260.538 148.732,259.352 147.462,257.548 144.671 C 256.697 143.354,256.000 142.454,256.000 142.672 M298.493 150.000 C 298.493 150.770,298.575 151.085,298.676 150.700 C 298.776 150.315,298.776 149.685,298.676 149.300 C 298.575 148.915,298.493 149.230,298.493 150.000 M298.054 152.668 C 297.964 154.101,296.718 155.874,295.031 156.968 C 294.156 157.536,293.621 158.000,293.842 158.000 C 295.395 158.000,298.573 154.169,298.276 152.654 L 298.109 151.800 298.054 152.668 M267.544 154.376 C 268.064 154.829,268.679 155.200,268.911 155.200 C 269.403 155.200,269.379 155.180,267.800 154.255 L 266.600 153.553 267.544 154.376 M269.600 155.396 C 269.600 155.670,272.049 156.884,272.232 156.701 C 272.319 156.614,271.762 156.244,270.995 155.878 C 270.228 155.512,269.600 155.295,269.600 155.396 M273.600 157.400 C 274.150 157.714,274.780 157.972,275.000 157.972 C 275.220 157.972,274.950 157.714,274.400 157.400 C 273.850 157.086,273.220 156.828,273.000 156.828 C 272.780 156.828,273.050 157.086,273.600 157.400 M278.000 158.782 C 278.330 159.005,278.945 159.191,279.367 159.194 C 280.390 159.202,280.071 158.973,278.600 158.644 C 277.724 158.448,277.562 158.485,278.000 158.782 M282.900 159.496 C 284.165 159.575,286.235 159.575,287.500 159.496 C 288.765 159.416,287.730 159.351,285.200 159.351 C 282.670 159.351,281.635 159.416,282.900 159.496 M305.600 161.834 C 304.364 162.340,304.341 162.374,305.400 162.122 C 306.960 161.752,309.048 161.745,310.800 162.105 L 312.200 162.393 310.800 161.827 C 309.018 161.106,307.372 161.109,305.600 161.834 M301.884 163.500 C 301.089 164.105,300.329 164.870,300.195 165.200 C 300.061 165.530,300.547 165.239,301.275 164.553 C 302.004 163.867,302.960 163.107,303.400 162.865 C 303.840 162.623,304.004 162.419,303.764 162.412 C 303.525 162.405,302.678 162.895,301.884 163.500 M314.049 163.934 C 316.237 165.880,317.104 167.546,317.564 170.687 C 317.794 172.256,317.918 172.574,317.951 171.677 C 318.072 168.398,315.738 164.132,313.059 162.737 C 312.587 162.491,313.032 163.029,314.049 163.934 M298.790 168.226 C 298.576 168.790,298.427 170.185,298.461 171.326 L 298.522 173.400 298.791 171.000 C 298.940 169.680,299.201 168.285,299.373 167.900 C 299.545 167.515,299.572 167.200,299.433 167.200 C 299.294 167.200,299.005 167.662,298.790 168.226 M317.232 173.622 C 317.214 173.964,316.655 175.102,315.990 176.152 C 315.324 177.201,314.962 177.947,315.185 177.809 C 315.907 177.363,317.676 174.025,317.467 173.505 C 317.329 173.164,317.253 173.202,317.232 173.622 M298.800 173.662 C 298.800 175.011,302.069 178.400,303.371 178.400 C 303.583 178.400,302.911 177.864,301.878 177.209 C 300.845 176.554,299.994 175.789,299.987 175.509 C 299.975 175.030,298.800 173.202,298.800 173.662 M312.635 178.700 C 312.470 178.865,311.045 179.106,309.468 179.235 L 306.600 179.471 309.200 179.521 C 310.807 179.552,312.182 179.353,312.800 179.000 C 313.350 178.686,313.605 178.422,313.367 178.414 C 313.128 178.406,312.799 178.535,312.635 178.700 " stroke="none" fill="#e47c7c" fill-rule="evenodd"></path><path id="path3" d="M255.987 48.799 C 255.430 48.956,254.620 49.269,254.187 49.494 C 253.754 49.720,250.340 51.434,246.600 53.303 C 242.860 55.172,238.847 57.263,237.682 57.950 C 236.518 58.638,235.417 59.200,235.236 59.200 C 235.056 59.200,234.479 59.530,233.954 59.933 C 233.429 60.336,232.190 61.101,231.200 61.633 C 224.310 65.335,211.756 79.853,214.525 80.916 C 214.894 81.058,215.677 80.458,216.655 79.285 C 223.940 70.539,230.919 64.792,239.946 60.106 C 242.726 58.663,245.270 57.275,245.600 57.021 C 245.930 56.768,248.287 55.538,250.837 54.289 C 255.341 52.082,257.600 50.439,257.600 49.369 C 257.600 48.629,257.152 48.471,255.987 48.799 M255.762 50.338 C 256.037 50.784,253.630 52.329,250.437 53.756 C 247.946 54.869,245.206 56.340,244.800 56.782 C 244.690 56.902,243.520 57.507,242.200 58.126 C 240.880 58.746,239.530 59.427,239.200 59.640 C 238.870 59.853,237.925 60.318,237.100 60.674 C 236.275 61.030,235.600 61.474,235.600 61.661 C 235.600 61.847,235.375 62.003,235.100 62.007 C 234.532 62.016,231.626 63.917,230.575 64.968 C 230.192 65.351,228.870 66.404,227.639 67.307 C 226.408 68.211,223.655 70.716,221.523 72.874 C 219.391 75.032,217.537 76.622,217.405 76.407 C 217.069 75.865,217.691 74.843,219.356 73.200 C 220.136 72.430,220.780 71.575,220.787 71.300 C 220.794 71.025,221.070 70.800,221.400 70.800 C 221.730 70.800,222.000 70.642,222.000 70.448 C 222.000 68.775,231.116 61.821,236.400 59.463 C 236.730 59.316,238.260 58.477,239.800 57.599 C 247.329 53.308,255.344 49.662,255.762 50.338 M217.200 76.974 C 217.200 78.017,216.288 79.193,215.510 79.154 C 214.832 79.119,214.779 79.060,215.300 78.924 C 215.685 78.824,216.000 78.425,216.000 78.037 C 216.000 77.650,216.120 77.213,216.267 77.067 C 216.565 76.768,217.200 76.705,217.200 76.974 M266.037 127.236 C 265.508 127.447,263.798 127.802,262.238 128.023 C 257.077 128.755,254.800 131.256,254.800 136.192 C 254.800 147.476,270.198 159.159,285.110 159.191 C 294.425 159.210,298.221 156.492,298.180 149.830 C 298.125 140.655,283.526 128.053,272.884 127.994 C 272.288 127.991,271.080 127.729,270.200 127.412 C 268.342 126.742,267.374 126.701,266.037 127.236 M272.600 128.614 C 282.184 130.213,283.972 131.185,291.882 139.102 C 299.832 147.058,299.661 155.366,291.497 157.894 C 287.418 159.157,278.213 158.516,274.806 156.730 C 274.039 156.329,273.118 156.000,272.760 156.000 C 272.401 156.000,271.679 155.665,271.154 155.255 C 270.629 154.845,269.750 154.369,269.200 154.197 C 267.980 153.814,262.668 149.788,260.949 147.943 C 252.809 139.203,253.848 129.477,263.020 128.561 C 264.549 128.409,266.160 128.137,266.600 127.959 C 267.040 127.780,267.850 127.734,268.400 127.857 C 268.950 127.980,270.840 128.320,272.600 128.614 M304.866 162.383 C 298.473 164.560,296.526 173.941,301.792 177.195 C 306.960 180.389,313.918 179.729,316.204 175.829 C 320.657 168.230,313.303 159.510,304.866 162.383 M310.077 162.645 C 317.137 163.613,319.353 175.171,312.988 177.831 C 308.893 179.542,300.851 177.365,300.193 174.367 C 300.053 173.730,299.772 173.106,299.569 172.981 C 299.097 172.689,299.085 169.718,299.555 169.428 C 299.750 169.307,300.023 168.601,300.163 167.857 C 300.569 165.692,303.150 163.239,305.501 162.783 C 307.580 162.379,308.038 162.366,310.077 162.645 " stroke="none" fill="#eca4a4" fill-rule="evenodd"></path><path id="path4" d="M255.200 48.070 C 254.430 48.289,253.516 48.723,253.169 49.034 C 252.821 49.345,252.371 49.600,252.169 49.600 C 251.679 49.600,241.057 54.853,240.800 55.222 C 240.690 55.381,239.970 55.796,239.200 56.146 C 236.893 57.194,232.720 59.487,232.448 59.856 C 232.309 60.045,231.120 60.766,229.807 61.458 C 227.200 62.833,222.779 66.555,221.026 68.852 C 220.417 69.651,219.222 71.001,218.372 71.852 C 217.522 72.704,216.820 73.616,216.813 73.880 C 216.806 74.144,216.575 74.504,216.300 74.680 C 215.655 75.093,214.389 76.948,213.287 79.096 L 212.417 80.793 213.389 81.429 C 214.749 82.321,215.688 81.891,217.658 79.479 C 219.974 76.643,227.237 69.416,228.100 69.090 C 228.485 68.944,228.800 68.657,228.800 68.451 C 228.800 68.113,232.084 65.685,234.096 64.536 C 234.543 64.281,235.019 63.911,235.154 63.713 C 235.289 63.516,235.985 63.118,236.700 62.829 C 237.415 62.540,238.000 62.173,238.000 62.015 C 238.000 61.856,238.720 61.511,239.600 61.247 C 240.480 60.984,241.200 60.595,241.200 60.384 C 241.200 60.173,241.368 60.000,241.574 60.000 C 242.099 60.000,243.527 59.342,245.400 58.237 C 246.280 57.718,248.880 56.359,251.178 55.218 C 256.774 52.439,258.400 51.132,258.400 49.409 C 258.400 47.614,257.755 47.344,255.200 48.070 M257.802 48.804 C 258.648 50.172,256.642 51.808,249.986 55.174 C 247.684 56.338,244.990 57.735,244.000 58.277 C 243.010 58.819,240.580 60.098,238.600 61.120 C 231.974 64.540,223.226 71.804,217.935 78.280 C 215.305 81.498,213.725 82.147,213.869 79.949 C 214.023 77.582,222.470 67.432,227.664 63.372 C 228.168 62.979,230.902 61.377,235.547 58.754 C 239.990 56.246,242.140 55.116,247.600 52.421 C 250.790 50.846,253.850 49.302,254.400 48.990 C 255.568 48.326,257.444 48.223,257.802 48.804 M265.149 126.399 C 264.130 126.575,262.927 126.918,262.475 127.160 C 262.023 127.402,261.109 127.600,260.445 127.600 C 259.106 127.600,257.200 128.343,257.200 128.864 C 257.200 129.049,256.930 129.200,256.600 129.200 C 256.270 129.200,256.000 129.352,256.000 129.539 C 256.000 129.725,255.653 130.278,255.229 130.767 C 253.549 132.704,253.699 139.321,255.506 142.958 C 257.114 146.196,262.082 152.000,263.245 152.000 C 263.440 152.000,263.600 152.153,263.600 152.340 C 263.600 152.656,267.393 155.200,267.863 155.200 C 267.979 155.200,268.531 155.560,269.091 156.000 C 269.650 156.440,270.422 156.800,270.805 156.800 C 271.188 156.800,271.722 157.065,271.991 157.389 C 272.260 157.714,273.137 158.086,273.940 158.216 C 274.743 158.347,276.114 158.757,276.987 159.127 C 279.371 160.138,291.566 160.117,292.690 159.100 C 293.115 158.715,293.824 158.400,294.266 158.400 C 298.279 158.400,300.952 147.996,297.988 143.916 C 297.554 143.320,297.200 142.720,297.200 142.582 C 297.200 141.799,285.884 130.819,285.063 130.806 C 284.878 130.803,284.269 130.440,283.709 130.000 C 283.150 129.560,282.384 129.200,282.008 129.200 C 281.631 129.200,280.794 128.936,280.147 128.614 C 279.501 128.291,277.898 127.916,276.586 127.780 C 275.274 127.643,273.570 127.300,272.800 127.017 C 270.851 126.301,267.349 126.018,265.149 126.399 M273.800 127.728 C 278.004 128.522,282.051 129.627,282.800 130.187 C 283.130 130.433,283.940 130.897,284.600 131.217 C 286.833 132.301,296.673 142.395,297.647 144.600 C 299.959 149.836,297.635 157.980,293.822 158.002 C 293.590 158.004,292.860 158.299,292.200 158.659 C 287.059 161.459,274.016 158.797,265.771 153.266 C 252.571 144.411,250.333 129.293,262.000 127.793 C 263.210 127.638,264.470 127.349,264.800 127.151 C 265.569 126.690,269.708 126.955,273.800 127.728 M303.800 161.730 C 300.855 163.331,300.187 163.961,299.049 166.209 C 296.657 170.931,298.515 177.747,302.428 178.606 C 303.102 178.754,304.137 179.127,304.727 179.435 C 307.848 181.064,314.280 179.786,316.376 177.121 C 322.805 168.948,312.876 156.797,303.800 161.730 M311.368 162.022 C 318.861 164.826,320.258 175.226,313.595 178.603 C 308.921 180.971,301.111 178.796,299.196 174.592 C 295.809 167.155,303.595 159.114,311.368 162.022 " stroke="none" fill="#dc6666" fill-rule="evenodd"></path></g></svg>